<svg width="159" height="159" viewBox="0 0 159 159" fill="none" xmlns="http://www.w3.org/2000/svg">
<path d="M49.0648 148.621C48.1802 150.63 45.829 151.551 43.8665 150.567C34.7792 146.01 26.6385 139.747 19.8954 132.107C12.2743 123.473 6.6203 113.285 3.32459 102.25C0.0288868 91.2146 -0.829823 79.595 0.807883 68.1951C2.44559 56.7952 6.5406 45.8873 12.8096 36.226C19.0785 26.5648 27.3718 18.381 37.1154 12.2408C46.859 6.10071 57.8204 2.1509 69.241 0.664708C80.6616 -0.821479 92.2688 0.191446 103.259 3.63339C112.984 6.67884 122.02 11.5616 129.884 18.0041C131.582 19.3954 131.699 21.9177 130.225 23.5442C128.75 25.1707 126.243 25.2845 124.537 23.9027C117.532 18.2285 109.509 13.9213 100.883 11.2201C90.9919 8.12231 80.5455 7.21067 70.2669 8.54824C59.9883 9.88581 50.1231 13.4406 41.3539 18.9668C32.5846 24.4929 25.1207 31.8583 19.4786 40.5534C13.8365 49.2485 10.151 59.0657 8.6771 69.3256C7.20316 79.5855 7.976 90.0431 10.9421 99.9749C13.9083 109.907 18.9969 119.075 25.8558 126.847C31.8368 133.623 39.0393 139.196 47.075 143.281C49.032 144.276 49.9495 146.612 49.0648 148.621Z" fill="#A252D7"/>
<path d="M121.906 141.996C123.138 143.813 122.67 146.294 120.794 147.434C112.107 152.715 102.477 156.286 92.4221 157.943C81.0583 159.815 69.4235 159.195 58.3227 156.127C47.2219 153.06 36.9202 147.616 28.1305 140.175C19.3407 132.733 12.2728 123.47 7.4157 113.028C2.55865 102.585 0.028471 91.2118 0.000238865 79.6949C-0.0279933 68.178 2.4464 56.7925 7.25219 46.3261C12.058 35.8598 19.0804 26.5626 27.8336 19.0779C35.5785 12.4553 44.5146 7.39163 54.1496 4.1501C56.2303 3.45007 58.4298 4.69027 59.0249 6.80339C59.6201 8.91651 58.3851 11.1013 56.3083 11.8129C47.7804 14.7348 39.8697 19.2461 33.0003 25.1201C25.1224 31.8564 18.8022 40.2238 14.477 49.6435C10.1518 59.0632 7.92481 69.3102 7.95022 79.6754C7.97563 90.0406 10.2528 100.277 14.6241 109.675C18.9955 119.073 25.3566 127.41 33.2674 134.107C41.1782 140.805 50.4497 145.704 60.4405 148.465C70.4312 151.226 80.9025 151.783 91.1299 150.098C100.048 148.629 108.595 145.486 116.324 140.846C118.206 139.717 120.673 140.18 121.906 141.996Z" fill="#3037DA"/>
<path d="M155.025 79.5C157.22 79.5 159.01 81.2809 158.901 83.4734C158.393 93.6264 155.941 103.601 151.666 112.851C146.835 123.305 139.79 132.585 131.018 140.049C122.247 147.512 111.958 152.98 100.865 156.075C89.7718 159.17 78.1385 159.818 66.7702 157.974C55.4018 156.13 44.5699 151.838 35.0239 145.395C25.4779 138.952 17.4458 130.511 11.4834 120.658C5.52092 110.805 1.77051 99.7735 0.491649 88.3278C-0.639892 78.2006 0.187397 67.9629 2.91488 58.1699C3.5039 56.0551 5.7651 54.9314 7.84786 55.6254C9.93062 56.3194 11.0451 58.5681 10.4678 60.6861C8.09747 69.3834 7.38885 78.4626 8.39249 87.445C9.54346 97.7462 12.9188 107.674 18.285 116.542C23.6512 125.41 30.8802 133.007 39.4715 138.805C48.0629 144.604 57.8117 148.467 68.0432 150.127C78.2747 151.786 88.7446 151.203 98.7285 148.418C108.712 145.632 117.972 140.711 125.866 133.994C133.761 127.277 140.101 118.925 144.45 109.516C148.241 101.311 150.439 92.4736 150.94 83.473C151.062 81.2811 152.83 79.5 155.025 79.5Z" fill="#55B7FF"/>
</svg>
